# xmcd CD database file
#
# Track frame offsets:
#	150
#	12745
#	23787
#	34817
#	44902
#	55720
#	68057
#	79685
#	89700
#	99620
#	110815
#	122530
#	135165
#	146140
#	156220
#	169315
#	178587
#	189435
#	201577
#	211000
#	224742
#	233797
#
# Disc length: 3271 seconds
#
# Revision: 2
# Processed by: cddbd v1.5.2PL0 Copyright (c) Steve Scherf et al.
# Submitted via: CDex 1.70beta2
#
DISCID=4b0cc516
DTITLE=Gene Pitney and Melba Montgomery - Being Together - The Country Side Of
DYEAR=1967
DGENRE=Country
TTITLE0=Being Together (W.& E.Montgomery)
TTITLE1=If I Were (W.& E.Montgomery)
TTITLE2=We Haven't Tried (W.& E.Montgomery)
TTITLE3=This Precious Love (Dallas Frazier)
TTITLE4=There's Gonna Be More Loving (W.& E.Montgomery)
TTITLE5=Don't Put An And To Me (W.& E.Montgomery)
TTITLE6=Baby Ain't That Fine (Dallas Frazier)
TTITLE7=I'm Looking For The Man (W.& E.Montgomery)
TTITLE8=Lay Down Your Arms (W.& E.Montgomery)
TTITLE9=Everybody Knew But You And Me (W.& E.Montgomery)
TTITLE10=King Of Queen (E.Montgomery)
TTITLE11=June Is As Cold As December (Marge Barton)
TTITLE12=For Me This Is Happy (S.Karliski)
TTITLE13=I'm Gonna Listen To Me (Dallas Frazier)
TTITLE14=She Thinks I Still Care (Lee)
TTITLE15=I'm Up To My Neck In IOU's (Montgomery)
TTITLE16=The More I Saw Of Her (The Blinder I Became) (W.& E.Montgomery)
TTITLE17=A Thousand Arms (Five Hundred Hearts) (Singleton-Snyder)
TTITLE18=Drinking From The Well Of Your Love (Dallas Frazier)
TTITLE19=Life To Go (G.Jones)
TTITLE20=I'd Like To See Me Stop You (T.Boyce-B.Hart)
TTITLE21=Won't Take Long
EXTD=Tracks 01-12 from LP Being Together (1966]\nTracks 13-22 from LP The Country Side Of ... (1967) YEAR: 1967
EXTT0=
EXTT1=
EXTT2=
EXTT3=
EXTT4=
EXTT5=
EXTT6=
EXTT7=
EXTT8=
EXTT9=
EXTT10=
EXTT11=
EXTT12=
EXTT13=
EXTT14=
EXTT15=
EXTT16=
EXTT17=
EXTT18=
EXTT19=
EXTT20=
EXTT21=
PLAYORDER=
